<?xml version="1.0" encoding="UTF-8"?>
<!DOCTYPE svg PUBLIC "-//W3C//DTD SVG 1.1//EN" "http://www.w3.org/Graphics/SVG/1.1/DTD/svg11.dtd">
<svg version="1.2" width="90.64mm" height="28.07mm" viewBox="0 0 9064 2807" preserveAspectRatio="xMidYMid" fill-rule="evenodd" stroke-width="28.222" stroke-linejoin="round" xmlns="http://www.w3.org/2000/svg" xmlns:ooo="http://xml.openoffice.org/svg/export" xmlns:xlink="http://www.w3.org/1999/xlink" xmlns:presentation="http://sun.com/xmlns/staroffice/presentation" xmlns:smil="http://www.w3.org/2001/SMIL20/" xmlns:anim="urn:oasis:names:tc:opendocument:xmlns:animation:1.0" xmlns:svg="urn:oasis:names:tc:opendocument:xmlns:svg-compatible:1.0" xml:space="preserve">
 <defs class="ClipPathGroup">
  <clipPath id="presentation_clip_path" clipPathUnits="userSpaceOnUse">
   <rect x="0" y="0" width="9064" height="2807"/>
  </clipPath>
  <clipPath id="presentation_clip_path_shrink" clipPathUnits="userSpaceOnUse">
   <rect x="9" y="2" width="9046" height="2802"/>
  </clipPath>
 </defs>
 <defs class="TextShapeIndex">
  <g ooo:slide="id1" ooo:id-list="id3"/>
 </defs>
 <defs class="EmbeddedBulletChars">
  <g id="bullet-char-template-57356" transform="scale(0.00048828125,-0.00048828125)">
   <path d="M 580,1141 L 1163,571 580,0 -4,571 580,1141 Z"/>
  </g>
  <g id="bullet-char-template-57354" transform="scale(0.00048828125,-0.00048828125)">
   <path d="M 8,1128 L 1137,1128 1137,0 8,0 8,1128 Z"/>
  </g>
  <g id="bullet-char-template-10146" transform="scale(0.00048828125,-0.00048828125)">
   <path d="M 174,0 L 602,739 174,1481 1456,739 174,0 Z M 1358,739 L 309,1346 659,739 1358,739 Z"/>
  </g>
  <g id="bullet-char-template-10132" transform="scale(0.00048828125,-0.00048828125)">
   <path d="M 2015,739 L 1276,0 717,0 1260,543 174,543 174,936 1260,936 717,1481 1274,1481 2015,739 Z"/>
  </g>
  <g id="bullet-char-template-10007" transform="scale(0.00048828125,-0.00048828125)">
   <path d="M 0,-2 C -7,14 -16,27 -25,37 L 356,567 C 262,823 215,952 215,954 215,979 228,992 255,992 264,992 276,990 289,987 310,991 331,999 354,1012 L 381,999 492,748 772,1049 836,1024 860,1049 C 881,1039 901,1025 922,1006 886,937 835,863 770,784 769,783 710,716 594,584 L 774,223 C 774,196 753,168 711,139 L 727,119 C 717,90 699,76 672,76 641,76 570,178 457,381 L 164,-76 C 142,-110 111,-127 72,-127 30,-127 9,-110 8,-76 1,-67 -2,-52 -2,-32 -2,-23 -1,-13 0,-2 Z"/>
  </g>
  <g id="bullet-char-template-10004" transform="scale(0.00048828125,-0.00048828125)">
   <path d="M 285,-33 C 182,-33 111,30 74,156 52,228 41,333 41,471 41,549 55,616 82,672 116,743 169,778 240,778 293,778 328,747 346,684 L 369,508 C 377,444 397,411 428,410 L 1163,1116 C 1174,1127 1196,1133 1229,1133 1271,1133 1292,1118 1292,1087 L 1292,965 C 1292,929 1282,901 1262,881 L 442,47 C 390,-6 338,-33 285,-33 Z"/>
  </g>
  <g id="bullet-char-template-9679" transform="scale(0.00048828125,-0.00048828125)">
   <path d="M 813,0 C 632,0 489,54 383,161 276,268 223,411 223,592 223,773 276,916 383,1023 489,1130 632,1184 813,1184 992,1184 1136,1130 1245,1023 1353,916 1407,772 1407,592 1407,412 1353,268 1245,161 1136,54 992,0 813,0 Z"/>
  </g>
  <g id="bullet-char-template-8226" transform="scale(0.00048828125,-0.00048828125)">
   <path d="M 346,457 C 273,457 209,483 155,535 101,586 74,649 74,723 74,796 101,859 155,911 209,963 273,989 346,989 419,989 480,963 531,910 582,859 608,796 608,723 608,648 583,586 532,535 482,483 420,457 346,457 Z"/>
  </g>
  <g id="bullet-char-template-8211" transform="scale(0.00048828125,-0.00048828125)">
   <path d="M -4,459 L 1135,459 1135,606 -4,606 -4,459 Z"/>
  </g>
  <g id="bullet-char-template-61548" transform="scale(0.00048828125,-0.00048828125)">
   <path d="M 173,740 C 173,903 231,1043 346,1159 462,1274 601,1332 765,1332 928,1332 1067,1274 1183,1159 1299,1043 1357,903 1357,740 1357,577 1299,437 1183,322 1067,206 928,148 765,148 601,148 462,206 346,322 231,437 173,577 173,740 Z"/>
  </g>
 </defs>
 <g>
  <g id="id2" class="Master_Slide">
   <g id="bg-id2" class="Background"/>
   <g id="bo-id2" class="BackgroundObjects"/>
  </g>
 </g>
 <g class="SlideGroup">
  <g>
   <g id="container-id1">
    <g id="id1" class="Slide" clip-path="url(#presentation_clip_path)">
     <g class="Page">
      <g class="Graphic">
       <g id="id3">
        <rect class="BoundingBox" stroke="none" fill="none" x="5491" y="400" width="1850" height="1841"/>
        <defs>
         <clipPath id="clip_path_1" clipPathUnits="userSpaceOnUse">
          <path d="M 5491,400 L 7340,400 7340,2240 5491,2240 5491,400 Z"/>
         </clipPath>
        </defs>
        <g clip-path="url(#clip_path_1)">
         <path fill="rgb(30,30,30)" stroke="none" d="M 1023,2537 C 887,2435 754,2321 747,2300 740,2277 758,2249 782,2249 793,2249 857,2279 925,2317 1351,2553 1873,2726 2384,2804 2794,2865 3255,2867 3655,2808 3990,2759 4357,2661 4653,2540 4713,2516 4774,2496 4789,2496 4841,2496 4872,2556 4841,2599 4834,2609 4788,2645 4738,2679 4369,2928 3919,3088 3381,3162 3261,3179 2838,3187 2711,3175 2080,3116 1510,2901 1023,2537 Z"/>
         <path fill="rgb(30,30,30)" stroke="none" d="M 4903,2929 C 4954,2798 5022,2581 5031,2517 5050,2393 5029,2362 4916,2345 4845,2334 4718,2338 4534,2356 4448,2364 4420,2365 4412,2357 4383,2328 4465,2263 4586,2217 4731,2163 4967,2144 5117,2175 5237,2199 5251,2215 5251,2319 5251,2472 5185,2679 5089,2827 5005,2956 4911,3032 4892,2984 4889,2976 4894,2952 4903,2929 Z"/>
         <path fill="rgb(123,173,42)" stroke="none" d="M 5528,1556 C 5507,1479 5505,1451 5505,1331 5505,1212 5508,1183 5527,1109 5614,782 5861,533 6177,452 6486,372 6809,461 7034,687 7167,820 7248,974 7289,1172 7304,1245 7302,1430 7285,1512 7215,1851 6975,2111 6641,2210 6574,2229 6540,2234 6429,2236 6341,2238 6276,2236 6235,2228 5891,2161 5620,1904 5528,1556 Z"/>
         <path fill="rgb(255,255,255)" stroke="none" d="M 6873,1338 C 6875,1326 6871,1312 6864,1307 6858,1302 6696,1224 6504,1133 6207,992 6153,970 6136,978 L 6116,987 6116,1335 C 6116,1639 6118,1685 6130,1697 6138,1704 6147,1710 6150,1710 6153,1710 6317,1631 6513,1535 6829,1380 6871,1357 6873,1338 Z"/>
         <path fill="rgb(30,30,30)" stroke="none" d="M -292,774 C -343,828 -394,931 -401,993 -406,1034 -404,1039 -385,1051 -373,1059 -310,1070 -233,1079 -83,1095 -77,1093 -60,1031 -32,927 79,863 188,889 282,910 315,958 325,1090 332,1183 339,1176 227,1186 124,1194 -38,1223 -104,1244 -325,1316 -447,1479 -448,1703 -448,1908 -358,2044 -185,2099 -121,2120 19,2121 98,2103 169,2086 246,2045 305,1994 330,1972 357,1949 365,1942 377,1932 384,1939 424,1992 477,2063 529,2108 559,2107 578,2107 757,1962 798,1912 817,1889 813,1872 774,1817 758,1795 736,1759 724,1737 703,1698 703,1695 698,1322 694,1082 688,933 682,908 665,844 619,768 572,725 488,649 373,609 218,601 205,601 191,600 178,600 -21,598 -185,659 -292,774 Z M 328,1416 C 327,1526 310,1653 291,1696 264,1754 221,1804 177,1826 129,1850 49,1849 11,1823 -31,1795 -54,1744 -58,1673 -63,1584 -48,1539 7,1484 61,1429 130,1404 251,1396 L 328,1390 328,1416 Z"/>
         <path fill="rgb(30,30,30)" stroke="none" d="M 3431,619 C 3348,639 3239,692 3185,740 3115,801 3059,902 3042,996 3031,1053 3043,1059 3200,1076 3291,1087 3345,1089 3355,1084 3364,1079 3376,1060 3381,1042 3415,936 3482,886 3588,886 3651,886 3678,895 3715,929 3752,962 3763,996 3767,1086 3772,1186 3792,1173 3603,1194 3366,1221 3241,1266 3138,1360 2932,1548 2950,1929 3170,2061 3197,2077 3240,2095 3266,2103 3338,2123 3517,2116 3588,2091 3650,2069 3711,2030 3776,1971 3802,1948 3824,1930 3825,1932 3827,1934 3837,1949 3849,1966 3860,1983 3894,2022 3922,2052 3997,2131 3999,2130 4137,2008 4199,1953 4251,1900 4253,1890 4254,1881 4241,1851 4223,1825 4205,1799 4180,1756 4167,1729 L 4144,1680 4139,1305 C 4134,912 4133,901 4091,818 4046,730 3926,647 3796,615 3764,607 3706,603 3644,603 3565,602 3479,608 3431,619 Z M 3726,1393 L 3769,1393 3769,1479 C 3769,1641 3727,1752 3646,1811 3616,1834 3600,1838 3550,1841 3467,1844 3417,1810 3394,1734 3358,1612 3401,1499 3503,1443 3552,1417 3657,1393 3726,1393 L 3726,1393 Z"/>
         <path fill="rgb(30,30,30)" stroke="none" d="M 1013,2083 C 1000,2068 999,2006 999,1369 999,746 1000,669 1013,657 1033,636 1309,636 1329,657 1340,668 1343,691 1343,769 L 1343,868 1368,815 C 1439,667 1587,591 1751,616 1862,633 1948,697 2005,803 L 2033,857 2059,809 C 2116,705 2215,636 2335,616 2504,589 2684,684 2738,827 2770,913 2773,990 2770,1541 2768,2057 2767,2074 2751,2086 2726,2104 2448,2104 2423,2086 2407,2074 2406,2056 2402,1563 2397,1070 2397,1052 2379,1023 2354,979 2317,960 2254,959 2193,959 2160,973 2121,1017 2073,1073 2072,1076 2067,1594 2062,2056 2061,2074 2045,2086 2032,2096 1994,2099 1882,2099 1801,2099 1730,2095 1722,2090 1711,2083 1708,2014 1704,1594 1699,1048 1698,1040 1639,988 1581,938 1483,943 1426,999 1368,1058 1366,1071 1363,1596 1360,2012 1358,2070 1345,2083 1333,2097 1313,2099 1180,2099 1044,2099 1027,2097 1013,2083 L 1013,2083 Z"/>
         <path fill="rgb(30,30,30)" stroke="none" d="M 7431,1363 C 7431,849 7434,686 7442,669 7453,647 7453,647 7604,645 7736,643 7756,644 7767,657 7776,668 7779,700 7779,777 7779,834 7780,881 7780,881 7781,881 7794,855 7811,822 7873,700 7958,635 8080,616 8239,592 8393,663 8457,790 8511,895 8510,888 8514,1502 8517,2025 8516,2067 8502,2082 8488,2097 8473,2099 8335,2099 8199,2099 8182,2097 8169,2083 8156,2068 8154,2023 8154,1612 8154,1326 8151,1139 8145,1106 8125,996 8069,945 7978,954 7896,962 7839,1028 7814,1143 7804,1191 7802,1292 7801,1633 7801,2052 7801,2064 7784,2081 7767,2097 7754,2099 7618,2099 7537,2099 7466,2096 7460,2092 7432,2074 7430,2032 7431,1363 Z"/>
         <path fill="rgb(30,30,30)" stroke="none" d="M 4409,1894 C 4409,1792 4412,1742 4421,1721 4428,1706 4550,1523 4693,1315 L 4953,938 4718,934 C 4498,930 4482,928 4470,912 4461,900 4457,866 4457,782 4457,681 4459,667 4475,652 4492,634 4504,634 4937,634 5362,634 5383,635 5403,651 5422,667 5423,673 5423,773 L 5423,878 5389,930 C 5370,959 5256,1125 5135,1298 5015,1472 4916,1615 4916,1617 4916,1618 4963,1622 5020,1625 5140,1631 5260,1659 5350,1701 5443,1745 5446,1751 5446,1904 5446,2019 5444,2036 5429,2049 5408,2068 5400,2067 5350,2043 5114,1924 4776,1919 4532,2032 4455,2068 4450,2068 4426,2051 4410,2039 4409,2027 4409,1894 Z"/>
        </g>
       </g>
      </g>
     </g>
    </g>
   </g>
  </g>
 </g>
</svg>