<svg width="70" height="70" viewBox="0 0 70 70" fill="none" xmlns="http://www.w3.org/2000/svg">
<mask id="mask0_1_20" style="mask-type:luminance" maskUnits="userSpaceOnUse" x="0" y="0" width="70" height="70">
<path d="M0 0H69.9699V69.4834H0V0Z" fill="white"/>
</mask>
<g mask="url(#mask0_1_20)">
<path fill-rule="evenodd" clip-rule="evenodd" d="M1.40014 43.6537C0.605454 40.746 0.52977 39.6886 0.52977 35.1571C0.52977 30.6633 0.643296 29.5682 1.36229 26.7738C4.65455 14.4254 14.0015 5.02245 25.9596 1.96366C37.6528 -1.05735 49.8757 2.30353 58.3902 10.8379C63.4232 15.8604 66.4884 21.6758 68.0399 29.1528C68.6075 31.9095 68.5319 38.8956 67.8885 41.9922C65.2396 54.7937 56.1575 64.612 43.5183 68.3506C40.9829 69.068 39.6962 69.2569 35.4958 69.3324C32.1657 69.4079 29.706 69.3324 28.1544 69.0303C15.1368 66.5002 4.8816 56.7952 1.40014 43.6537Z" fill="#7BAD2A"/>
<path fill-rule="evenodd" clip-rule="evenodd" d="M52.2976 35.4214C52.3733 34.9683 52.222 34.4396 51.9571 34.2508C51.73 34.062 45.5996 31.1165 38.3339 27.6801C27.0949 22.3555 25.0514 21.5248 24.4081 21.8269L23.6512 22.1667V35.3082C23.6512 46.788 23.7269 48.5251 24.181 48.9783C24.4838 49.2426 24.8243 49.4692 24.9379 49.4692C25.0514 49.4692 31.2575 46.4859 38.6745 42.8607C50.6326 37.0075 52.222 36.1389 52.2976 35.4214Z" fill="white"/>
</g>
</svg>
