<svg width="100" height="100" viewBox="0 0 100 100" fill="none" xmlns="http://www.w3.org/2000/svg">
<circle cx="50" cy="50" r="50" fill="url(#paint0_linear_3_10)"/>
<mask id="mask0_3_10" style="mask-type:alpha" maskUnits="userSpaceOnUse" x="15" y="15" width="70" height="70">
<rect x="85" y="15" width="70" height="70" transform="rotate(90 85 15)" fill="#D9D9D9"/>
</mask>
<g mask="url(#mask0_3_10)">
<path d="M23.75 72.1667L42.125 53.7917C40.9583 52.3333 40.0347 50.6563 39.3542 48.7604C38.6736 46.8646 38.3333 44.8472 38.3333 42.7083C38.3333 37.4097 40.1684 32.9253 43.8385 29.2552C47.5087 25.5851 51.9931 23.75 57.2917 23.75C62.5903 23.75 67.0747 25.5851 70.7448 29.2552C74.4149 32.9253 76.25 37.4097 76.25 42.7083C76.25 48.0069 74.4149 52.4913 70.7448 56.1615C67.0747 59.8316 62.5903 61.6667 57.2917 61.6667C55.1528 61.6667 53.1354 61.3264 51.2396 60.6458C49.3437 59.9653 47.6667 59.0417 46.2083 57.875L27.8333 76.25L23.75 72.1667ZM44.1667 42.7083C44.1667 46.3542 45.4427 49.4531 47.9948 52.0052C50.5469 54.5573 53.6458 55.8333 57.2917 55.8333C60.9375 55.8333 64.0365 54.5573 66.5885 52.0052C69.1406 49.4531 70.4167 46.3542 70.4167 42.7083C70.4167 39.0625 69.1406 35.9635 66.5885 33.4115C64.0365 30.8594 60.9375 29.5833 57.2917 29.5833C53.6458 29.5833 50.5469 30.8594 47.9948 33.4115C45.4427 35.9635 44.1667 39.0625 44.1667 42.7083Z" fill="white"/>
</g>
<defs>
<linearGradient id="paint0_linear_3_10" x1="50" y1="0" x2="50" y2="100" gradientUnits="userSpaceOnUse">
<stop stop-color="#BFBFBF"/>
<stop offset="1" stop-color="#818181"/>
</linearGradient>
</defs>
</svg>
