<svg width="100" height="100" viewBox="0 0 100 100" fill="none" xmlns="http://www.w3.org/2000/svg">
<circle cx="50" cy="50" r="50" fill="url(#paint0_linear_3_10)"/>
<mask id="mask0_3_10" style="mask-type:alpha" maskUnits="userSpaceOnUse" x="15" y="15" width="70" height="70">
<rect x="15" y="15" width="70" height="70" fill="#D9D9D9"/>
</mask>
<g mask="url(#mask0_3_10)">
<path d="M41.9792 79.1667L40.8125 69.8333C40.1806 69.5903 39.5851 69.2986 39.026 68.9583C38.467 68.6181 37.9201 68.2535 37.3854 67.8646L28.7083 71.5104L20.6875 57.6562L28.1979 51.9687C28.1493 51.6285 28.125 51.3003 28.125 50.9844V49.0156C28.125 48.6997 28.1493 48.3715 28.1979 48.0312L20.6875 42.3437L28.7083 28.4896L37.3854 32.1354C37.9201 31.7465 38.4792 31.3819 39.0625 31.0417C39.6458 30.7014 40.2292 30.4097 40.8125 30.1667L41.9792 20.8333H58.0208L59.1875 30.1667C59.8194 30.4097 60.4149 30.7014 60.974 31.0417C61.533 31.3819 62.0799 31.7465 62.6146 32.1354L71.2917 28.4896L79.3125 42.3437L71.8021 48.0312C71.8507 48.3715 71.875 48.6997 71.875 49.0156V50.9844C71.875 51.3003 71.8264 51.6285 71.7292 51.9687L79.2396 57.6562L71.2187 71.5104L62.6146 67.8646C62.0799 68.2535 61.5208 68.6181 60.9375 68.9583C60.3542 69.2986 59.7708 69.5903 59.1875 69.8333L58.0208 79.1667H41.9792ZM47.0833 73.3333H52.8437L53.8646 65.6042C55.3715 65.2153 56.7691 64.6441 58.0573 63.8906C59.3455 63.1371 60.5243 62.2257 61.5937 61.1562L68.8125 64.1458L71.6562 59.1875L65.3854 54.4479C65.6285 53.7674 65.7986 53.0503 65.8958 52.2969C65.9931 51.5434 66.0417 50.7778 66.0417 50C66.0417 49.2222 65.9931 48.4566 65.8958 47.7031C65.7986 46.9497 65.6285 46.2326 65.3854 45.5521L71.6562 40.8125L68.8125 35.8542L61.5937 38.9167C60.5243 37.7986 59.3455 36.8628 58.0573 36.1094C56.7691 35.3559 55.3715 34.7847 53.8646 34.3958L52.9167 26.6667H47.1562L46.1354 34.3958C44.6285 34.7847 43.2309 35.3559 41.9427 36.1094C40.6545 36.8628 39.4757 37.7743 38.4062 38.8437L31.1875 35.8542L28.3437 40.8125L34.6146 45.4792C34.3715 46.2083 34.2014 46.9375 34.1042 47.6667C34.0069 48.3958 33.9583 49.1736 33.9583 50C33.9583 50.7778 34.0069 51.5312 34.1042 52.2604C34.2014 52.9896 34.3715 53.7187 34.6146 54.4479L28.3437 59.1875L31.1875 64.1458L38.4062 61.0833C39.4757 62.2014 40.6545 63.1371 41.9427 63.8906C43.2309 64.6441 44.6285 65.2153 46.1354 65.6042L47.0833 73.3333ZM50.1458 60.2083C52.9653 60.2083 55.3715 59.2118 57.3646 57.2187C59.3576 55.2257 60.3542 52.8194 60.3542 50C60.3542 47.1806 59.3576 44.7743 57.3646 42.7812C55.3715 40.7882 52.9653 39.7917 50.1458 39.7917C47.2778 39.7917 44.8594 40.7882 42.8906 42.7812C40.9219 44.7743 39.9375 47.1806 39.9375 50C39.9375 52.8194 40.9219 55.2257 42.8906 57.2187C44.8594 59.2118 47.2778 60.2083 50.1458 60.2083Z" fill="white"/>
</g>
<defs>
<linearGradient id="paint0_linear_3_10" x1="50" y1="0" x2="50" y2="100" gradientUnits="userSpaceOnUse">
<stop stop-color="#BFBFBF"/>
<stop offset="1" stop-color="#818181"/>
</linearGradient>
</defs>
</svg>
