<svg width="100" height="100" viewBox="0 0 100 100" fill="none" xmlns="http://www.w3.org/2000/svg">
<circle cx="50" cy="50" r="50" fill="url(#paint0_linear_3_10)"/>
<mask id="mask0_3_10" style="mask-type:alpha" maskUnits="userSpaceOnUse" x="15" y="15" width="70" height="70">
<rect x="15" y="15" width="70" height="70" fill="#D9D9D9"/>
</mask>
<g mask="url(#mask0_3_10)">
<path d="M45.9167 61.6667C45.9167 57.7292 46.2691 54.8976 46.9739 53.1719C47.6788 51.4462 49.1736 49.5625 51.4583 47.5208C53.4514 45.7708 54.9705 44.2517 56.0156 42.9635C57.0608 41.6753 57.5833 40.2049 57.5833 38.5521C57.5833 36.559 56.9149 34.9063 55.5781 33.5938C54.2413 32.2813 52.3819 31.625 50 31.625C47.5208 31.625 45.6371 32.3785 44.3489 33.8854C43.0608 35.3924 42.1493 36.9236 41.6146 38.4792L34.1042 35.2708C35.125 32.1597 36.9965 29.4618 39.7187 27.1771C42.441 24.8924 45.868 23.75 50 23.75C55.1042 23.75 59.0295 25.1719 61.776 28.0156C64.5226 30.8594 65.8958 34.2743 65.8958 38.2604C65.8958 40.691 65.3733 42.7691 64.3281 44.4948C63.283 46.2205 61.6424 48.1771 59.4062 50.3646C57.0243 52.6493 55.5781 54.3872 55.0677 55.5781C54.5573 56.7691 54.3021 58.7986 54.3021 61.6667H45.9167ZM50 79.1667C48.3958 79.1667 47.0226 78.5955 45.8802 77.4531C44.7378 76.3108 44.1667 74.9375 44.1667 73.3333C44.1667 71.7292 44.7378 70.3559 45.8802 69.2135C47.0226 68.0712 48.3958 67.5 50 67.5C51.6042 67.5 52.9774 68.0712 54.1198 69.2135C55.2621 70.3559 55.8333 71.7292 55.8333 73.3333C55.8333 74.9375 55.2621 76.3108 54.1198 77.4531C52.9774 78.5955 51.6042 79.1667 50 79.1667Z" fill="white"/>
</g>
<defs>
<linearGradient id="paint0_linear_3_10" x1="50" y1="0" x2="50" y2="100" gradientUnits="userSpaceOnUse">
<stop stop-color="#BFBFBF"/>
<stop offset="1" stop-color="#818181"/>
</linearGradient>
</defs>
</svg>
