<svg width="70" height="70" viewBox="0 0 70 70" fill="none" xmlns="http://www.w3.org/2000/svg">
<mask id="mask0_3_10" style="mask-type:alpha" maskUnits="userSpaceOnUse" x="0" y="0" width="70" height="70">
<rect width="70" height="70" fill="#D9D9D9"/>
</mask>
<g mask="url(#mask0_3_10)">
<path d="M30.9167 46.6667C30.9167 42.7292 31.2691 39.8976 31.9739 38.1719C32.6788 36.4462 34.1736 34.5625 36.4583 32.5208C38.4514 30.7708 39.9705 29.2517 41.0156 27.9635C42.0608 26.6753 42.5833 25.2049 42.5833 23.5521C42.5833 21.559 41.9149 19.9063 40.5781 18.5938C39.2413 17.2813 37.3819 16.625 35 16.625C32.5208 16.625 30.6371 17.3785 29.3489 18.8854C28.0608 20.3924 27.1493 21.9236 26.6146 23.4792L19.1042 20.2708C20.125 17.1597 21.9965 14.4618 24.7187 12.1771C27.441 9.89236 30.868 8.75 35 8.75C40.1042 8.75 44.0295 10.1719 46.776 13.0156C49.5226 15.8594 50.8958 19.2743 50.8958 23.2604C50.8958 25.691 50.3733 27.7691 49.3281 29.4948C48.283 31.2205 46.6424 33.1771 44.4062 35.3646C42.0243 37.6493 40.5781 39.3872 40.0677 40.5781C39.5573 41.7691 39.3021 43.7986 39.3021 46.6667H30.9167ZM35 64.1667C33.3958 64.1667 32.0226 63.5955 30.8802 62.4531C29.7378 61.3108 29.1667 59.9375 29.1667 58.3333C29.1667 56.7292 29.7378 55.3559 30.8802 54.2135C32.0226 53.0712 33.3958 52.5 35 52.5C36.6042 52.5 37.9774 53.0712 39.1198 54.2135C40.2621 55.3559 40.8333 56.7292 40.8333 58.3333C40.8333 59.9375 40.2621 61.3108 39.1198 62.4531C37.9774 63.5955 36.6042 64.1667 35 64.1667Z" fill="white"/>
</g>
</svg>
